<svg fill="none" height="734" viewBox="0 0 868 734" width="868" xmlns="http://www.w3.org/2000/svg" xmlns:xlink="http://www.w3.org/1999/xlink"><filter id="a" color-interpolation-filters="sRGB" filterUnits="userSpaceOnUse" height="715.079" width="637.922" x="259.375" y="186.045"><feFlood flood-opacity="0" result="BackgroundImageFix"/><feColorMatrix in="SourceAlpha" type="matrix" values="0 0 0 0 0 0 0 0 0 0 0 0 0 0 0 0 0 0 127 0"/><feOffset dy="10.6756"/><feGaussianBlur stdDeviation="4.27023"/><feColorMatrix type="matrix" values="0 0 0 0 0 0 0 0 0 0 0 0 0 0 0 0 0 0 0.0365489 0"/><feBlend in2="BackgroundImageFix" mode="normal" result="effect1_dropShadow"/><feColorMatrix in="SourceAlpha" type="matrix" values="0 0 0 0 0 0 0 0 0 0 0 0 0 0 0 0 0 0 127 0"/><feOffset dy="25.6549"/><feGaussianBlur stdDeviation="10.262"/><feColorMatrix type="matrix" values="0 0 0 0 0 0 0 0 0 0 0 0 0 0 0 0 0 0 0.0525061 0"/><feBlend in2="effect1_dropShadow" mode="normal" result="effect2_dropShadow"/><feColorMatrix in="SourceAlpha" type="matrix" values="0 0 0 0 0 0 0 0 0 0 0 0 0 0 0 0 0 0 127 0"/><feOffset dy="48.3059"/><feGaussianBlur stdDeviation="19.3223"/><feColorMatrix type="matrix" values="0 0 0 0 0 0 0 0 0 0 0 0 0 0 0 0 0 0 0.065 0"/><feBlend in2="effect2_dropShadow" mode="normal" result="effect3_dropShadow"/><feColorMatrix in="SourceAlpha" type="matrix" values="0 0 0 0 0 0 0 0 0 0 0 0 0 0 0 0 0 0 127 0"/><feOffset dy="86.1694"/><feGaussianBlur stdDeviation="34.4678"/><feColorMatrix type="matrix" values="0 0 0 0 0 0 0 0 0 0 0 0 0 0 0 0 0 0 0.0774939 0"/><feBlend in2="effect3_dropShadow" mode="normal" result="effect4_dropShadow"/><feColorMatrix in="SourceAlpha" type="matrix" values="0 0 0 0 0 0 0 0 0 0 0 0 0 0 0 0 0 0 127 0"/><feOffset dy="161.17"/><feGaussianBlur stdDeviation="64.4682"/><feColorMatrix type="matrix" values="0 0 0 0 0 0 0 0 0 0 0 0 0 0 0 0 0 0 0.0934511 0"/><feBlend in2="effect4_dropShadow" mode="normal" result="effect5_dropShadow"/><feColorMatrix in="SourceAlpha" type="matrix" values="0 0 0 0 0 0 0 0 0 0 0 0 0 0 0 0 0 0 127 0"/><feOffset dy="385.782"/><feGaussianBlur stdDeviation="154.313"/><feColorMatrix type="matrix" values="0 0 0 0 0 0 0 0 0 0 0 0 0 0 0 0 0 0 0.13 0"/><feBlend in2="effect5_dropShadow" mode="normal" result="effect6_dropShadow"/><feBlend in="SourceGraphic" in2="effect6_dropShadow" mode="normal" result="shape"/></filter><filter id="b" color-interpolation-filters="sRGB" filterUnits="userSpaceOnUse" height="200.672" width="180.672" x="199.066" y="682.136"><feFlood flood-opacity="0" result="BackgroundImageFix"/><feColorMatrix in="SourceAlpha" type="matrix" values="0 0 0 0 0 0 0 0 0 0 0 0 0 0 0 0 0 0 127 0"/><feOffset dy="2.76726"/><feGaussianBlur stdDeviation="1.1069"/><feColorMatrix type="matrix" values="0 0 0 0 0 0 0 0 0 0 0 0 0 0 0 0 0 0 0.035 0"/><feBlend in2="BackgroundImageFix" mode="normal" result="effect1_dropShadow"/><feColorMatrix in="SourceAlpha" type="matrix" values="0 0 0 0 0 0 0 0 0 0 0 0 0 0 0 0 0 0 127 0"/><feOffset dy="6.6501"/><feGaussianBlur stdDeviation="2.66004"/><feColorMatrix type="matrix" values="0 0 0 0 0 0 0 0 0 0 0 0 0 0 0 0 0 0 0.0216 0"/><feBlend in2="effect1_dropShadow" mode="normal" result="effect2_dropShadow"/><feColorMatrix in="SourceAlpha" type="matrix" values="0 0 0 0 0 0 0 0 0 0 0 0 0 0 0 0 0 0 127 0"/><feOffset dy="12.5216"/><feGaussianBlur stdDeviation="5.00862"/><feColorMatrix type="matrix" values="0 0 0 0 0 0 0 0 0 0 0 0 0 0 0 0 0 0 0.0184 0"/><feBlend in2="effect2_dropShadow" mode="normal" result="effect3_dropShadow"/><feColorMatrix in="SourceAlpha" type="matrix" values="0 0 0 0 0 0 0 0 0 0 0 0 0 0 0 0 0 0 127 0"/><feOffset dy="22.3363"/><feGaussianBlur stdDeviation="8.93452"/><feColorMatrix type="matrix" values="0 0 0 0 0 0 0 0 0 0 0 0 0 0 0 0 0 0 0.0141 0"/><feBlend in2="effect3_dropShadow" mode="normal" result="effect4_dropShadow"/><feColorMatrix in="SourceAlpha" type="matrix" values="0 0 0 0 0 0 0 0 0 0 0 0 0 0 0 0 0 0 127 0"/><feOffset dy="41.7776"/><feGaussianBlur stdDeviation="16.711"/><feColorMatrix type="matrix" values="0 0 0 0 0 0 0 0 0 0 0 0 0 0 0 0 0 0 0.0116 0"/><feBlend in2="effect4_dropShadow" mode="normal" result="effect5_dropShadow"/><feColorMatrix in="SourceAlpha" type="matrix" values="0 0 0 0 0 0 0 0 0 0 0 0 0 0 0 0 0 0 127 0"/><feOffset dy="100"/><feGaussianBlur stdDeviation="40"/><feColorMatrix type="matrix" values="0 0 0 0 0 0 0 0 0 0 0 0 0 0 0 0 0 0 0.01 0"/><feBlend in2="effect5_dropShadow" mode="normal" result="effect6_dropShadow"/><feBlend in="SourceGraphic" in2="effect6_dropShadow" mode="normal" result="shape"/></filter><clipPath id="c"><path d="m0 0h868v734h-868z"/></clipPath><g clip-path="url(#c)"><g fill="#f5f7f9"><path d="m0 0h20.6717v20.6717h-20.6717z" fill-opacity=".33" transform="matrix(1 -.00000009 -.00000009 -1 77.9746 82.6875)"/><path d="m0 0h20.6717v20.6717h-20.6717z" fill-opacity=".33" transform="matrix(1 -.00000009 -.00000009 -1 77.9746 20.6719)"/><path d="m0 0h20.6717v20.6717h-20.6717z" fill-opacity=".66" transform="matrix(1 -.00000009 -.00000009 -1 77.9746 51.6787)"/><path d="m0 0h20.6717v20.6717h-20.6717z" fill-opacity=".33" transform="matrix(1 -.00000009 -.00000009 -1 444.064 454.776)"/><path d="m0 0h20.6717v20.6717h-20.6717z" fill-opacity=".33" transform="matrix(1 -.00000009 -.00000009 -1 444.064 330.746)"/><path d="m0 0h20.6717v20.6717h-20.6717z" fill-opacity=".33" transform="matrix(1 -.00000009 -.00000009 -1 444.064 392.761)"/><path d="m0 0h20.6717v20.6717h-20.6717z" fill-opacity=".33" transform="matrix(1 -.00000009 -.00000009 -1 444.064 516.791)"/><path d="m0 0h20.6717v20.6717h-20.6717z" fill-opacity=".33" transform="matrix(1 -.00000009 -.00000009 -1 444.064 361.754)"/><path d="m0 0h20.6717v20.6717h-20.6717z" fill-opacity=".33" transform="matrix(1 -.00000009 -.00000009 -1 444.064 485.783)"/><path d="m0 0h20.6717v20.6717h-20.6717z" transform="matrix(1 -.00000009 -.00000009 -1 264.02 82.6875)"/><path d="m0 0h20.6717v20.6717h-20.6717z" fill-opacity=".33" transform="matrix(1 -.00000009 -.00000009 -1 264.02 20.6719)"/><path d="m0 0h20.6717v20.6717h-20.6717z" fill-opacity=".33" transform="matrix(1 -.00000009 -.00000009 -1 264.018 51.6787)"/><path d="m0 0h20.6717v20.6717h-20.6717z" fill-opacity=".33" transform="matrix(1 -.00000009 -.00000009 -1 630.109 454.776)"/><path d="m0 0h20.6717v20.6717h-20.6717z" fill-opacity=".33" transform="matrix(1 -.00000009 -.00000009 -1 630.109 206.717)"/><path d="m0 0h20.6717v20.6717h-20.6717z" fill-opacity=".33" transform="matrix(1 -.00000009 -.00000009 -1 630.109 82.6875)"/><path d="m0 0h20.6717v20.6717h-20.6717z" fill-opacity=".66" transform="matrix(1 -.00000009 -.00000009 -1 630.109 392.761)"/><path d="m0 0h20.6717v20.6717h-20.6717z" fill-opacity=".33" transform="matrix(1 -.00000009 -.00000009 -1 630.109 144.701)"/><path d="m0 0h20.6717v20.6717h-20.6717z" fill-opacity=".33" transform="matrix(1 -.00000009 -.00000009 -1 630.109 268.731)"/><path d="m0 0h20.6717v20.6717h-20.6717z" fill-opacity=".33" transform="matrix(1 -.00000009 -.00000009 -1 630.109 516.791)"/><path d="m0 0h20.6717v20.6717h-20.6717z" fill-opacity=".66" transform="matrix(1 -.00000009 -.00000009 -1 630.109 20.6719)"/><path d="m0 0h20.6717v20.6717h-20.6717z" fill-opacity=".33" transform="matrix(1 -.00000009 -.00000009 -1 630.109 423.769)"/><path d="m0 0h20.6717v20.6717h-20.6717z" fill-opacity=".33" transform="matrix(1 -.00000009 -.00000009 -1 630.109 175.709)"/><path d="m0 0h20.6717v20.6717h-20.6717z" fill-opacity=".33" transform="matrix(1 -.00000009 -.00000009 -1 630.109 299.738)"/><path d="m0 0h20.6717v20.6717h-20.6717z" transform="matrix(1 -.00000009 -.00000009 -1 630.109 51.6787)"/><path d="m0 0h20.6717v20.6717h-20.6717z" fill-opacity=".33" transform="matrix(1 -.00000009 -.00000009 -1 630.109 361.754)"/><path d="m0 0h20.6717v20.6717h-20.6717z" transform="matrix(1 -.00000009 -.00000009 -1 630.109 113.694)"/><path d="m0 0h20.6717v20.6717h-20.6717z" fill-opacity=".33" transform="matrix(1 -.00000009 -.00000009 -1 630.109 237.724)"/><path d="m0 0h20.6717v20.6717h-20.6717z" fill-opacity=".66" transform="matrix(1 -.00000009 -.00000009 -1 630.109 485.783)"/><path d="m0 0h20.6717v20.6717h-20.6717z" fill-opacity=".33" transform="matrix(1 -.00000009 -.00000009 -1 599.102 485.783)"/><path d="m0 0h20.6717v20.6717h-20.6717z" fill-opacity=".33" transform="matrix(1 -.00000009 -.00000009 -1 170.996 82.6875)"/><path d="m0 0h20.6717v20.6717h-20.6717z" fill-opacity=".33" transform="matrix(1 -.00000009 -.00000009 -1 170.996 20.6719)"/><path d="m0 0h20.6717v20.6717h-20.6717z" fill-opacity=".33" transform="matrix(1 -.00000009 -.00000009 -1 170.996 51.6787)"/><path d="m0 0h20.6717v20.6717h-20.6717z" fill-opacity=".33" transform="matrix(1 -.00000009 -.00000009 -1 537.088 206.717)"/><path d="m0 0h20.6717v20.6717h-20.6717z" fill-opacity=".33" transform="matrix(1 -.00000009 -.00000009 -1 537.088 330.746)"/><path d="m0 0h20.6717v20.6717h-20.6717z" fill-opacity=".33" transform="matrix(1 -.00000009 -.00000009 -1 537.088 392.761)"/><path d="m0 0h20.6717v20.6717h-20.6717z" transform="matrix(1 -.00000009 -.00000009 -1 537.088 144.701)"/><path d="m0 0h20.6717v20.6717h-20.6717z" fill-opacity=".66" transform="matrix(1 -.00000009 -.00000009 -1 537.088 268.731)"/><path d="m0 0h20.6717v20.6717h-20.6717z" fill-opacity=".66" transform="matrix(1 -.00000009 -.00000009 -1 537.088 516.791)"/><path d="m0 0h20.6717v20.6717h-20.6717z" fill-opacity=".33" transform="matrix(1 -.00000009 -.00000009 -1 537.088 423.769)"/><path d="m0 0h20.6717v20.6717h-20.6717z" fill-opacity=".33" transform="matrix(1 -.00000009 -.00000009 -1 537.088 175.709)"/><path d="m0 0h20.6717v20.6717h-20.6717z" fill-opacity=".33" transform="matrix(1 -.00000009 -.00000009 -1 537.088 299.738)"/><path d="m0 0h20.6717v20.6717h-20.6717z" fill-opacity=".33" transform="matrix(1 -.00000009 -.00000009 -1 537.088 361.754)"/><path d="m0 0h20.6717v20.6717h-20.6717z" fill-opacity=".33" transform="matrix(1 -.00000009 -.00000009 -1 537.088 113.694)"/><path d="m0 0h20.6717v20.6717h-20.6717z" fill-opacity=".66" transform="matrix(1 -.00000009 -.00000009 -1 537.088 237.724)"/><path d="m0 0h20.6717v20.6717h-20.6717z" fill-opacity=".33" transform="matrix(1 -.00000009 -.00000009 -1 537.088 485.783)"/><path d="m0 0h20.6717v20.6717h-20.6717z" transform="matrix(1 -.00000009 -.00000009 -1 357.041 82.6875)"/><path d="m0 0h20.6717v20.6717h-20.6717z" fill-opacity=".33" transform="matrix(1 -.00000009 -.00000009 -1 357.041 20.6719)"/><path d="m0 0h20.6717v20.6717h-20.6717z" fill-opacity=".33" transform="matrix(1 -.00000009 -.00000009 -1 357.041 51.6787)"/><path d="m0 0h20.6717v20.6717h-20.6717z" fill-opacity=".33" transform="matrix(1 -.00000009 -.00000009 -1 723.133 330.746)"/><path d="m0 0h20.6717v20.6717h-20.6717z" fill-opacity=".33" transform="matrix(1 -.00000009 -.00000009 -1 723.133 82.6875)"/><path d="m0 0h20.6717v20.6717h-20.6717z" fill-opacity=".66" transform="matrix(1 -.00000009 -.00000009 -1 723.133 392.761)"/><path d="m0 0h20.6717v20.6717h-20.6717z" fill-opacity=".33" transform="matrix(1 -.00000009 -.00000009 -1 723.133 144.701)"/><path d="m0 0h20.6717v20.6717h-20.6717z" fill-opacity=".33" transform="matrix(1 -.00000009 -.00000009 -1 723.133 268.731)"/><path d="m0 0h20.6717v20.6717h-20.6717z" fill-opacity=".33" transform="matrix(1 -.00000009 -.00000009 -1 723.133 516.791)"/><path d="m0 0h20.6717v20.6717h-20.6717z" fill-opacity=".66" transform="matrix(1 -.00000009 -.00000009 -1 723.133 20.6719)"/><path d="m0 0h20.6717v20.6717h-20.6717z" fill-opacity=".66" transform="matrix(1 -.00000009 -.00000009 -1 723.133 423.769)"/><path d="m0 0h20.6717v20.6717h-20.6717z" fill-opacity=".33" transform="matrix(1 -.00000009 -.00000009 -1 723.133 175.709)"/><path d="m0 0h20.6717v20.6717h-20.6717z" fill-opacity=".33" transform="matrix(1 -.00000009 -.00000009 -1 723.133 299.738)"/><path d="m0 0h20.6717v20.6717h-20.6717z" fill-opacity=".33" transform="matrix(1 -.00000009 -.00000009 -1 723.133 51.6787)"/><path d="m0 0h20.6717v20.6717h-20.6717z" fill-opacity=".33" transform="matrix(1 -.00000009 -.00000009 -1 723.133 361.754)"/><path d="m0 0h20.6717v20.6717h-20.6717z" fill-opacity=".66" transform="matrix(1 -.00000009 -.00000009 -1 723.133 113.694)"/><path d="m0 0h20.6717v20.6717h-20.6717z" fill-opacity=".33" transform="matrix(1 -.00000009 -.00000009 -1 754.139 113.694)"/><path d="m0 0h20.6717v20.6717h-20.6717z" fill-opacity=".33" transform="matrix(1 -.00000009 -.00000009 -1 723.133 237.724)"/><path d="m0 0h20.6717v20.6717h-20.6717z" fill-opacity=".33" transform="matrix(1 -.00000009 -.00000009 -1 108.98 82.6875)"/><path d="m0 0h20.6717v20.6717h-20.6717z" fill-opacity=".33" transform="matrix(1 -.00000009 -.00000009 -1 108.98 20.6719)"/></g><g filter="url(#a)"><path d="m0 0h20.6717v20.6717h-20.6717z" fill="#f5f7f9" fill-opacity=".33" transform="matrix(1 -.00000009 -.00000009 -1 568 206.717)"/></g><g fill="#f5f7f9"><path d="m0 0h20.6717v20.6717h-20.6717z" transform="matrix(1 -.00000009 -.00000009 -1 108.98 51.6787)"/><path d="m0 0h20.6717v20.6717h-20.6717z" fill-opacity=".33" transform="matrix(1 -.00000009 -.00000009 -1 475.07 454.776)"/><path d="m0 0h20.6717v20.6717h-20.6717z" fill-opacity=".33" transform="matrix(1 -.00000009 -.00000009 -1 475.07 330.746)"/><path d="m0 0h20.6717v20.6717h-20.6717z" fill-opacity=".33" transform="matrix(1 -.00000009 -.00000009 -1 475.07 392.761)"/><path d="m0 0h20.6717v20.6717h-20.6717z" fill-opacity=".33" transform="matrix(1 -.00000009 -.00000009 -1 475.07 423.769)"/><path d="m0 0h20.6717v20.6717h-20.6717z" fill-opacity=".33" transform="matrix(1 -.00000009 -.00000009 -1 475.07 361.754)"/><path d="m0 0h20.6717v20.6717h-20.6717z" fill-opacity=".33" transform="matrix(1 -.00000009 -.00000009 -1 295.027 82.6875)"/><path d="m0 0h20.6717v20.6717h-20.6717z" fill-opacity=".33" transform="matrix(1 -.00000009 -.00000009 -1 295.027 20.6719)"/><path d="m0 0h20.6717v20.6717h-20.6717z" fill-opacity=".66" transform="matrix(1 -.00000009 -.00000009 -1 295.027 51.6787)"/><path d="m0 0h20.6717v20.6717h-20.6717z" transform="matrix(1 -.00000009 -.00000009 -1 661.117 454.776)"/><path d="m0 0h20.6717v20.6717h-20.6717z" fill-opacity=".33" transform="matrix(1 -.00000009 -.00000009 -1 661.117 206.717)"/><path d="m0 0h20.6717v20.6717h-20.6717z" fill-opacity=".33" transform="matrix(1 -.00000009 -.00000009 -1 661.117 330.746)"/><path d="m0 0h20.6717v20.6717h-20.6717z" transform="matrix(1 -.00000009 -.00000009 -1 661.117 82.6875)"/><path d="m0 0h20.6717v20.6717h-20.6717z" fill-opacity=".33" transform="matrix(1 -.00000009 -.00000009 -1 661.117 144.701)"/><path d="m0 0h20.6717v20.6717h-20.6717z" fill-opacity=".33" transform="matrix(1 -.00000009 -.00000009 -1 661.117 268.731)"/><path d="m0 0h20.6717v20.6717h-20.6717z" fill-opacity=".33" transform="matrix(1 -.00000009 -.00000009 -1 661.117 516.791)"/><path d="m0 0h20.6717v20.6717h-20.6717z" transform="matrix(1 -.00000009 -.00000009 -1 661.117 20.6719)"/><path d="m0 0h20.6717v20.6717h-20.6717z" transform="matrix(1 -.00000009 -.00000009 -1 661.117 423.769)"/><g fill-opacity=".33"><path d="m0 0h20.6717v20.6717h-20.6717z" transform="matrix(1 -.00000009 -.00000009 -1 661.117 175.709)"/><path d="m0 0h20.6717v20.6717h-20.6717z" transform="matrix(1 -.00000009 -.00000009 -1 661.117 299.738)"/><path d="m0 0h20.6717v20.6717h-20.6717z" transform="matrix(1 -.00000009 -.00000009 -1 661.117 51.6787)"/><path d="m0 0h20.6717v20.6717h-20.6717z" transform="matrix(1 -.00000009 -.00000009 -1 661.117 361.754)"/><path d="m0 0h20.6717v20.6717h-20.6717z" transform="matrix(1 -.00000009 -.00000009 -1 661.117 113.694)"/><path d="m0 0h20.6717v20.6717h-20.6717z" transform="matrix(1 -.00000009 -.00000009 -1 661.117 237.724)"/><path d="m0 0h20.6717v20.6717h-20.6717z" transform="matrix(1 -.00000009 -.00000009 -1 661.117 485.783)"/><path d="m0 0h20.6717v20.6717h-20.6717z" transform="matrix(1 -.00000009 -.00000009 -1 202.004 82.6875)"/><path d="m0 0h20.6717v20.6717h-20.6717z" transform="matrix(1 -.00000009 -.00000009 -1 202.004 20.6719)"/><path d="m0 0h20.6717v20.6717h-20.6717z" transform="matrix(1 -.00000009 -.00000009 -1 202.004 51.6787)"/><path d="m0 0h20.6717v20.6717h-20.6717z" transform="matrix(1 -.00000009 -.00000009 -1 568.094 206.717)"/><path d="m0 0h20.6717v20.6717h-20.6717z" transform="matrix(1 -.00000009 -.00000009 -1 568.094 392.761)"/></g><path d="m0 0h20.6717v20.6717h-20.6717z" transform="matrix(1 -.00000009 -.00000009 -1 568.094 144.701)"/><path d="m0 0h20.6717v20.6717h-20.6717z" transform="matrix(1 -.00000009 -.00000009 -1 568.094 268.731)"/><path d="m0 0h20.6717v20.6717h-20.6717z" fill-opacity=".33" transform="matrix(1 -.00000009 -.00000009 -1 568.094 516.791)"/><path d="m0 0h20.6717v20.6717h-20.6717z" fill-opacity=".33" transform="matrix(1 -.00000009 -.00000009 -1 568.094 175.709)"/><path d="m0 0h20.6717v20.6717h-20.6717z" transform="matrix(1 -.00000009 -.00000009 -1 568.094 299.738)"/><path d="m0 0h20.6717v20.6717h-20.6717z" fill-opacity=".33" transform="matrix(1 -.00000009 -.00000009 -1 568.094 113.694)"/><path d="m0 0h20.6717v20.6717h-20.6717z" fill-opacity=".33" transform="matrix(1 -.00000009 -.00000009 -1 568.094 485.783)"/><path d="m0 0h20.6717v20.6717h-20.6717z" fill-opacity=".66" transform="matrix(1 -.00000009 -.00000009 -1 388.049 82.6875)"/><path d="m0 0h20.6717v20.6717h-20.6717z" fill-opacity=".33" transform="matrix(1 -.00000009 -.00000009 -1 388.049 20.6719)"/><path d="m0 0h20.6717v20.6717h-20.6717z" fill-opacity=".33" transform="matrix(1 -.00000009 -.00000009 -1 388.049 51.6787)"/><path d="m0 0h20.6717v20.6717h-20.6717z" fill-opacity=".33" transform="matrix(1 -.00000009 -.00000009 -1 754.139 206.717)"/><path d="m0 0h20.6717v20.6717h-20.6717z" fill-opacity=".33" transform="matrix(1 -.00000009 -.00000009 -1 754.139 330.746)"/><path d="m0 0h20.6717v20.6717h-20.6717z" fill-opacity=".33" transform="matrix(1 -.00000009 -.00000009 -1 754.139 82.6875)"/><path d="m0 0h20.6717v20.6717h-20.6717z" fill-opacity=".33" transform="matrix(1 -.00000009 -.00000009 -1 754.139 144.701)"/><path d="m0 0h20.6717v20.6717h-20.6717z" fill-opacity=".33" transform="matrix(1 -.00000009 -.00000009 -1 754.139 268.731)"/><path d="m0 0h20.6717v20.6717h-20.6717z" fill-opacity=".66" transform="matrix(1 -.00000009 -.00000009 -1 754.139 20.6719)"/><path d="m0 0h20.6717v20.6717h-20.6717z" fill-opacity=".33" transform="matrix(1 -.00000009 -.00000009 -1 754.139 175.709)"/><path d="m0 0h20.6717v20.6717h-20.6717z" fill-opacity=".33" transform="matrix(1 -.00000009 -.00000009 -1 754.139 299.738)"/><path d="m0 0h20.6717v20.6717h-20.6717z" fill-opacity=".33" transform="matrix(1 -.00000009 -.00000009 -1 754.139 51.6787)"/><path d="m0 0h20.6717v20.6717h-20.6717z" fill-opacity=".33" transform="matrix(1 -.00000009 -.00000009 -1 754.139 237.724)"/><path d="m0 0h20.6717v20.6717h-20.6717z" fill-opacity=".66" transform="matrix(1 -.00000009 -.00000009 -1 139.988 82.6875)"/><path d="m0 0h20.6717v20.6717h-20.6717z" fill-opacity=".66" transform="matrix(1 -.00000009 -.00000009 -1 139.988 20.6719)"/><path d="m0 0h20.6717v20.6717h-20.6717z" transform="matrix(1 -.00000009 -.00000009 -1 139.988 51.6787)"/><path d="m0 0h20.6717v20.6717h-20.6717z" fill-opacity=".33" transform="matrix(1 -.00000009 -.00000009 -1 506.078 454.776)"/><path d="m0 0h20.6717v20.6717h-20.6717z" fill-opacity=".33" transform="matrix(1 -.00000009 -.00000009 -1 506.078 392.761)"/><path d="m0 0h20.6717v20.6717h-20.6717z" fill-opacity=".33" transform="matrix(1 -.00000009 -.00000009 -1 506.078 144.701)"/><path d="m0 0h20.6717v20.6717h-20.6717z" fill-opacity=".66" transform="matrix(1 -.00000009 -.00000009 -1 506.078 268.731)"/><path d="m0 0h20.6717v20.6717h-20.6717z" fill-opacity=".33" transform="matrix(1 -.00000009 -.00000009 -1 506.078 516.791)"/><path d="m0 0h20.6717v20.6717h-20.6717z" fill-opacity=".33" transform="matrix(1 -.00000009 -.00000009 -1 506.078 423.769)"/><path d="m0 0h20.6717v20.6717h-20.6717z" transform="matrix(1 -.00000009 -.00000009 -1 506.078 175.709)"/><path d="m0 0h20.6717v20.6717h-20.6717z" fill-opacity=".66" transform="matrix(1 -.00000009 -.00000009 -1 506.078 299.738)"/><g fill-opacity=".33"><path d="m0 0h20.6717v20.6717h-20.6717z" transform="matrix(1 -.00000009 -.00000009 -1 506.078 113.694)"/><path d="m0 0h20.6717v20.6717h-20.6717z" transform="matrix(1 -.00000009 -.00000009 -1 506.078 237.724)"/><path d="m0 0h20.6717v20.6717h-20.6717z" transform="matrix(1 -.00000009 -.00000009 -1 326.035 82.6875)"/><path d="m0 0h20.6717v20.6717h-20.6717z" transform="matrix(1 -.00000009 -.00000009 -1 326.035 20.6719)"/><path d="m0 0h20.6717v20.6717h-20.6717z" transform="matrix(1 -.00000009 -.00000009 -1 326.035 51.6787)"/><path d="m0 0h20.6717v20.6717h-20.6717z" transform="matrix(1 -.00000009 -.00000009 -1 692.125 206.717)"/><path d="m0 0h20.6717v20.6717h-20.6717z" transform="matrix(1 -.00000009 -.00000009 -1 692.125 330.746)"/><path d="m0 0h20.6717v20.6717h-20.6717z" transform="matrix(1 -.00000009 -.00000009 -1 692.125 82.6875)"/><path d="m0 0h20.6717v20.6717h-20.6717z" transform="matrix(1 -.00000009 -.00000009 -1 692.125 392.761)"/><path d="m0 0h20.6717v20.6717h-20.6717z" transform="matrix(1 -.00000009 -.00000009 -1 692.125 144.701)"/><path d="m0 0h20.6717v20.6717h-20.6717z" transform="matrix(1 -.00000009 -.00000009 -1 692.125 268.731)"/><path d="m0 0h20.6717v20.6717h-20.6717z" transform="matrix(1 -.00000009 -.00000009 -1 692.125 516.791)"/></g><path d="m0 0h20.6717v20.6717h-20.6717z" fill-opacity=".66" transform="matrix(1 -.00000009 -.00000009 -1 692.125 20.6719)"/><path d="m0 0h20.6717v20.6717h-20.6717z" fill-opacity=".33" transform="matrix(1 -.00000009 -.00000009 -1 692.125 423.769)"/><path d="m0 0h20.6717v20.6717h-20.6717z" fill-opacity=".33" transform="matrix(1 -.00000009 -.00000009 -1 692.125 175.709)"/><path d="m0 0h20.6717v20.6717h-20.6717z" fill-opacity=".33" transform="matrix(1 -.00000009 -.00000009 -1 692.125 299.738)"/><path d="m0 0h20.6717v20.6717h-20.6717z" fill-opacity=".33" transform="matrix(1 -.00000009 -.00000009 -1 692.125 51.6787)"/><path d="m0 0h20.6717v20.6717h-20.6717z" fill-opacity=".33" transform="matrix(1 -.00000009 -.00000009 -1 692.125 361.754)"/><path d="m0 0h20.6717v20.6717h-20.6717z" fill-opacity=".66" transform="matrix(1 -.00000009 -.00000009 -1 692.125 113.694)"/><path d="m0 0h20.6717v20.6717h-20.6717z" fill-opacity=".33" transform="matrix(1 -.00000009 -.00000009 -1 692.125 237.724)"/><path d="m0 0h20.6717v20.6717h-20.6717z" transform="matrix(1 -.00000009 -.00000009 -1 233.012 20.6719)"/><path d="m0 0h20.6717v20.6717h-20.6717z" fill-opacity=".33" transform="matrix(1 -.00000009 -.00000009 -1 233.012 51.6787)"/><path d="m0 0h20.6717v20.6717h-20.6717z" fill-opacity=".33" transform="matrix(1 -.00000009 -.00000009 -1 599.102 454.776)"/><path d="m0 0h20.6717v20.6717h-20.6717z" transform="matrix(1 -.00000009 -.00000009 -1 599.102 206.717)"/><path d="m0 0h20.6717v20.6717h-20.6717z" fill-opacity=".33" transform="matrix(1 -.00000009 -.00000009 -1 599.102 330.746)"/><path d="m0 0h20.6717v20.6717h-20.6717z" fill-opacity=".33" transform="matrix(1 -.00000009 -.00000009 -1 599.102 82.6875)"/><path d="m0 0h20.6717v20.6717h-20.6717z" fill-opacity=".33" transform="matrix(1 -.00000009 -.00000009 -1 599.102 392.761)"/><path d="m0 0h20.6717v20.6717h-20.6717z" fill-opacity=".33" transform="matrix(1 -.00000009 -.00000009 -1 599.102 144.701)"/><path d="m0 0h20.6717v20.6717h-20.6717z" fill-opacity=".33" transform="matrix(1 -.00000009 -.00000009 -1 599.102 268.731)"/><path d="m0 0h20.6717v20.6717h-20.6717z" fill-opacity=".33" transform="matrix(1 -.00000009 -.00000009 -1 599.102 516.791)"/><path d="m0 0h20.6717v20.6717h-20.6717z" fill-opacity=".66" transform="matrix(1 -.00000009 -.00000009 -1 599.102 20.6719)"/><path d="m0 0h20.6717v20.6717h-20.6717z" fill-opacity=".33" transform="matrix(1 -.00000009 -.00000009 -1 599.102 423.769)"/><path d="m0 0h20.6717v20.6717h-20.6717z" fill-opacity=".33" transform="matrix(1 -.00000009 -.00000009 -1 599.102 175.709)"/><path d="m0 0h20.6717v20.6717h-20.6717z" fill-opacity=".33" transform="matrix(1 -.00000009 -.00000009 -1 599.102 51.6787)"/><path d="m0 0h20.6717v20.6717h-20.6717z" transform="matrix(1 -.00000009 -.00000009 -1 599.102 113.694)"/><path d="m0 0h20.6717v20.6717h-20.6717z" fill-opacity=".33" transform="matrix(1 -.00000009 -.00000009 -1 599.102 237.724)"/><path d="m0 0h20.6717v20.6717h-20.6717z" fill-opacity=".66" transform="matrix(1 -.00000009 -.00000009 -1 419.059 82.6875)"/><path d="m0 0h20.6717v20.6717h-20.6717z" fill-opacity=".66" transform="matrix(1 -.00000009 -.00000009 -1 419.059 516.791)"/><path d="m0 0h20.6717v20.6717h-20.6717z" fill-opacity=".33" transform="matrix(1 -.00000009 -.00000009 -1 419.059 20.6719)"/><path d="m0 0h20.6717v20.6717h-20.6717z" fill-opacity=".66" transform="matrix(1 -.00000009 -.00000009 -1 419.059 51.6787)"/><path d="m0 0h20.6717v20.6717h-20.6717z" fill-opacity=".66" transform="matrix(1 -.00000009 -.00000009 -1 785.146 206.717)"/><path d="m0 0h20.6717v20.6717h-20.6717z" fill-opacity=".33" transform="matrix(1 -.00000009 -.00000009 -1 785.148 330.746)"/><path d="m0 0h20.6717v20.6717h-20.6717z" transform="matrix(1 -.00000009 -.00000009 -1 785.146 82.6875)"/><path d="m0 0h20.6717v20.6717h-20.6717z" transform="matrix(1 -.00000009 -.00000009 -1 785.146 144.701)"/><path d="m0 0h20.6717v20.6717h-20.6717z" fill-opacity=".33" transform="matrix(1 -.00000009 -.00000009 -1 785.148 268.731)"/><path d="m0 0h20.6717v20.6717h-20.6717z" fill-opacity=".66" transform="matrix(1 -.00000009 -.00000009 -1 785.146 20.6719)"/><path d="m0 0h20.6717v20.6717h-20.6717z" fill-opacity=".66" transform="matrix(1 -.00000009 -.00000009 -1 785.146 175.709)"/><path d="m0 0h20.6717v20.6717h-20.6717z" fill-opacity=".33" transform="matrix(1 -.00000009 -.00000009 -1 785.146 51.6787)"/><path d="m0 0h20.6717v20.6717h-20.6717z" fill-opacity=".33" transform="matrix(1 -.00000009 -.00000009 -1 785.148 361.754)"/><path d="m0 0h20.6717v20.6717h-20.6717z" fill-opacity=".33" transform="matrix(1 -.00000009 -.00000009 -1 785.146 113.694)"/><path d="m0 0h20.6717v20.6717h-20.6717z" fill-opacity=".33" transform="matrix(1 -.00000009 -.00000009 -1 785.148 237.724)"/><path d="m0 0h20.6717v20.6717h-20.6717z" transform="matrix(1 -.00000009 -.00000009 -1 816.154 330.746)"/><path d="m0 0h20.6717v20.6717h-20.6717z" fill-opacity=".33" transform="matrix(1 -.00000009 -.00000009 -1 816.154 82.6875)"/><path d="m0 0h20.6717v20.6717h-20.6717z" fill-opacity=".33" transform="matrix(1 -.00000009 -.00000009 -1 816.154 144.701)"/><path d="m0 0h20.6717v20.6717h-20.6717z" fill-opacity=".66" transform="matrix(1 -.00000009 -.00000009 -1 816.154 20.6719)"/><path d="m0 0h20.6717v20.6717h-20.6717z" transform="matrix(1 -.00000009 -.00000009 -1 816.154 175.709)"/><path d="m0 0h20.6717v20.6717h-20.6717z" fill-opacity=".33" transform="matrix(1 -.00000009 -.00000009 -1 816.154 51.6787)"/><path d="m0 0h20.6717v20.6717h-20.6717z" fill-opacity=".33" transform="matrix(1 -.00000009 -.00000009 -1 816.154 113.694)"/><path d="m0 0h20.6717v20.6717h-20.6717z" fill-opacity=".33" transform="matrix(1 -.00000009 -.00000009 -1 816.154 237.724)"/><path d="m0 0h20.6717v20.6717h-20.6717z" fill-opacity=".66" transform="matrix(1 -.00000009 -.00000009 -1 847.16 454.776)"/><path d="m0 0h20.6717v20.6717h-20.6717z" fill-opacity=".33" transform="matrix(1 -.00000009 -.00000009 -1 847.16 330.746)"/><path d="m0 0h20.6717v20.6717h-20.6717z" fill-opacity=".33" transform="matrix(1 -.00000009 -.00000009 -1 847.16 82.6875)"/><path d="m0 0h20.6717v20.6717h-20.6717z" fill-opacity=".66" transform="matrix(1 -.00000009 -.00000009 -1 847.16 392.761)"/><path d="m0 0h20.6717v20.6717h-20.6717z" fill-opacity=".66" transform="matrix(1 -.00000009 -.00000009 -1 847.16 268.731)"/><path d="m0 0h20.6717v20.6717h-20.6717z" fill-opacity=".66" transform="matrix(1 -.00000009 -.00000009 -1 847.16 423.769)"/><path d="m0 0h20.6717v20.6717h-20.6717z" fill-opacity=".66" transform="matrix(1 -.00000009 -.00000009 -1 847.16 175.709)"/><path d="m0 0h20.6717v20.6717h-20.6717z" fill-opacity=".33" transform="matrix(1 -.00000009 -.00000009 -1 847.16 51.6787)"/><path d="m0 0h20.6717v20.6717h-20.6717z" fill-opacity=".33" transform="matrix(1 -.00000009 -.00000009 -1 847.16 361.754)"/><path d="m0 0h20.6717v20.6717h-20.6717z" transform="matrix(1 0 0 -1 0 733.814)"/><path d="m0 0h20.6717v20.6717h-20.6717z" fill-opacity=".66" transform="matrix(1 0 0 -1 0 237.694)"/><path d="m0 0h20.6717v20.6717h-20.6717z" fill-opacity=".33" transform="matrix(1 0 0 -1 0 485.755)"/><path d="m0 0h20.6717v20.6717h-20.6717z" fill-opacity=".33" transform="matrix(1 0 0 -1 0 609.785)"/><path d="m0 0h20.6717v20.6717h-20.6717z" fill-opacity=".66" transform="matrix(1 0 0 -1 0 671.799)"/><path d="m0 0h20.6717v20.6717h-20.6717z" fill-opacity=".33" transform="matrix(1 0 0 -1 0 175.68)"/><path d="m0 0h20.6717v20.6717h-20.6717z" fill-opacity=".66" transform="matrix(1 0 0 -1 0 299.71)"/><path d="m0 0h20.6717v20.6717h-20.6717z" transform="matrix(1 0 0 -1 0 702.808)"/><path d="m0 0h20.6717v20.6717h-20.6717z" transform="matrix(1 0 0 -1 0 206.687)"/><path d="m0 0h20.6717v20.6717h-20.6717z" fill-opacity=".33" transform="matrix(1 0 0 -1 0 454.747)"/><path d="m0 0h20.6717v20.6717h-20.6717z" fill-opacity=".33" transform="matrix(1 0 0 -1 0 578.776)"/><path d="m0 0h20.6717v20.6717h-20.6717z" fill-opacity=".33" transform="matrix(1 0 0 -1 0 640.792)"/><path d="m0 0h20.6717v20.6717h-20.6717z" fill-opacity=".33" transform="matrix(1 0 0 -1 0 144.672)"/><path d="m0 0h20.6717v20.6717h-20.6717z" fill-opacity=".33" transform="matrix(1 0 0 -1 0 516.763)"/><path d="m0 0h20.6717v20.6717h-20.6717z" fill-opacity=".66" transform="matrix(1 0 0 -1 0 268.701)"/><path d="m0 0h20.6717v20.6717h-20.6717z" fill-opacity=".66" transform="matrix(1 0 0 -1 93.0234 733.814)"/><path d="m0 0h20.6717v20.6717h-20.6717z" fill-opacity=".33" transform="matrix(1 0 0 -1 93.0234 485.755)"/><path d="m0 0h20.6717v20.6717h-20.6717z" fill-opacity=".33" transform="matrix(1 0 0 -1 93.0234 609.785)"/><path d="m0 0h20.6717v20.6717h-20.6717z" transform="matrix(1 0 0 -1 93.0234 671.799)"/><path d="m0 0h20.6717v20.6717h-20.6717z" fill-opacity=".33" transform="matrix(1 0 0 -1 93.0234 175.68)"/><path d="m0 0h20.6717v20.6717h-20.6717z" fill-opacity=".33" transform="matrix(1 0 0 -1 93.0234 299.71)"/><path d="m0 0h20.6717v20.6717h-20.6717z" fill-opacity=".66" transform="matrix(1 0 0 -1 93.0234 702.808)"/><path d="m0 0h20.6717v20.6717h-20.6717z" fill-opacity=".33" transform="matrix(1 0 0 -1 93.0234 206.687)"/><path d="m0 0h20.6717v20.6717h-20.6717z" fill-opacity=".33" transform="matrix(1 0 0 -1 93.0234 578.776)"/><path d="m0 0h20.6717v20.6717h-20.6717z" fill-opacity=".33" transform="matrix(1 0 0 -1 93.0234 640.792)"/><path d="m0 0h20.6717v20.6717h-20.6717z" fill-opacity=".33" transform="matrix(1 0 0 -1 93.0234 144.672)"/><path d="m0 0h20.6717v20.6717h-20.6717z" transform="matrix(1 0 0 -1 31.0078 733.814)"/><path d="m0 0h20.6717v20.6717h-20.6717z" fill-opacity=".33" transform="matrix(1 0 0 -1 31.0078 237.694)"/><path d="m0 0h20.6717v20.6717h-20.6717z" fill-opacity=".33" transform="matrix(1 0 0 -1 31.0078 485.755)"/><path d="m0 0h20.6717v20.6717h-20.6717z" fill-opacity=".33" transform="matrix(1 0 0 -1 31.0078 609.785)"/><path d="m0 0h20.6717v20.6717h-20.6717z" transform="matrix(1 0 0 -1 31.0078 671.799)"/><path d="m0 0h20.6717v20.6717h-20.6717z" fill-opacity=".33" transform="matrix(1 0 0 -1 31.0078 299.71)"/><path d="m0 0h20.6717v20.6717h-20.6717z" fill-opacity=".66" transform="matrix(1 0 0 -1 31.0078 702.808)"/><path d="m0 0h20.6717v20.6717h-20.6717z" fill-opacity=".33" transform="matrix(1 0 0 -1 31.0078 206.687)"/><path d="m0 0h20.6717v20.6717h-20.6717z" fill-opacity=".33" transform="matrix(1 0 0 -1 31.0078 454.747)"/><path d="m0 0h20.6717v20.6717h-20.6717z" fill-opacity=".33" transform="matrix(1 0 0 -1 31.0078 578.776)"/><path d="m0 0h20.6717v20.6717h-20.6717z" fill-opacity=".33" transform="matrix(1 0 0 -1 31.0078 640.792)"/><path d="m0 0h20.6717v20.6717h-20.6717z" transform="matrix(1 0 0 -1 31.0078 144.672)"/><path d="m0 0h20.6717v20.6717h-20.6717z" fill-opacity=".33" transform="matrix(1 0 0 -1 31.0078 516.763)"/><path d="m0 0h20.6717v20.6717h-20.6717z" fill-opacity=".33" transform="matrix(1 0 0 -1 31.0078 268.701)"/><path d="m0 0h20.6717v20.6717h-20.6717z" transform="matrix(1 0 0 -1 124.029 733.814)"/><path d="m0 0h20.6717v20.6717h-20.6717z" fill-opacity=".33" transform="matrix(1 0 0 -1 124.029 609.785)"/><path d="m0 0h20.6717v20.6717h-20.6717z" transform="matrix(1 0 0 -1 124.029 671.799)"/><path d="m0 0h20.6717v20.6717h-20.6717z" fill-opacity=".33" transform="matrix(1 0 0 -1 124.029 547.77)"/><path d="m0 0h20.6717v20.6717h-20.6717z" fill-opacity=".66" transform="matrix(1 0 0 -1 124.029 702.808)"/><path d="m0 0h20.6717v20.6717h-20.6717z" fill-opacity=".33" transform="matrix(1 0 0 -1 124.029 454.747)"/><path d="m0 0h20.6717v20.6717h-20.6717z" fill-opacity=".66" transform="matrix(1 0 0 -1 124.029 578.776)"/><path d="m0 0h20.6717v20.6717h-20.6717z" fill-opacity=".33" transform="matrix(1 0 0 -1 124.029 640.792)"/><path d="m0 0h20.6717v20.6717h-20.6717z" fill-opacity=".33" transform="matrix(1 0 0 -1 124.029 516.763)"/><path d="m0 0h20.6717v20.6717h-20.6717z" transform="matrix(1 0 0 -1 62.0156 733.814)"/><path d="m0 0h20.6717v20.6717h-20.6717z" fill-opacity=".66" transform="matrix(1 0 0 -1 62.0156 485.755)"/><path d="m0 0h20.6717v20.6717h-20.6717z" fill-opacity=".33" transform="matrix(1 0 0 -1 62.0156 609.785)"/><path d="m0 0h20.6717v20.6717h-20.6717z" fill-opacity=".66" transform="matrix(1 0 0 -1 62.0156 671.799)"/><path d="m0 0h20.6717v20.6717h-20.6717z" fill-opacity=".33" transform="matrix(1 0 0 -1 62.0156 175.68)"/><path d="m0 0h20.6717v20.6717h-20.6717z" transform="matrix(1 0 0 -1 62.0156 299.71)"/></g><path d="m0 0h20.6717v20.6717h-20.6717z" fill="#f5f7f9" fill-opacity=".66" transform="matrix(1 0 0 -1 62.0156 206.687)"/><path d="m0 0h20.6717v20.6717h-20.6717z" fill="#f5f7f9" transform="matrix(1 0 0 -1 62.0156 454.747)"/><path d="m0 0h20.6717v20.6717h-20.6717z" fill="#f5f7f9" fill-opacity=".33" transform="matrix(1 0 0 -1 62.0156 578.776)"/><path d="m0 0h20.6717v20.6717h-20.6717z" fill="#f5f7f9" fill-opacity=".33" transform="matrix(1 0 0 -1 62.0156 640.792)"/><path d="m0 0h20.6717v20.6717h-20.6717z" fill="#f5f7f9" fill-opacity=".33" transform="matrix(1 0 0 -1 62.0156 144.672)"/><path d="m0 0h20.6717v20.6717h-20.6717z" fill="#f5f7f9" transform="matrix(1 0 0 -1 155.037 733.814)"/><path d="m0 0h20.6717v20.6717h-20.6717z" fill="#f5f7f9" fill-opacity=".66" transform="matrix(1 0 0 -1 155.037 485.755)"/><path d="m0 0h20.6717v20.6717h-20.6717z" fill="#f5f7f9" fill-opacity=".66" transform="matrix(1 0 0 -1 155.037 671.799)"/><path d="m0 0h20.6717v20.6717h-20.6717z" fill="#f5f7f9" fill-opacity=".33" transform="matrix(1 0 0 -1 155.037 547.77)"/><path d="m0 0h20.6717v20.6717h-20.6717z" fill="#f5f7f9" fill-opacity=".66" transform="matrix(1 0 0 -1 155.037 702.808)"/><path d="m0 0h20.6717v20.6717h-20.6717z" fill="#f5f7f9" fill-opacity=".33" transform="matrix(1 0 0 -1 155.037 454.747)"/><path d="m0 0h20.6717v20.6717h-20.6717z" fill="#f5f7f9" fill-opacity=".33" transform="matrix(1 0 0 -1 155.037 578.776)"/><path d="m0 0h20.6717v20.6717h-20.6717z" fill="#f5f7f9" fill-opacity=".33" transform="matrix(1 0 0 -1 155.037 640.792)"/><path d="m0 0h20.6717v20.6717h-20.6717z" fill="#f5f7f9" transform="matrix(1 0 0 -1 155.037 144.672)"/><path d="m0 0h20.6717v20.6717h-20.6717z" fill="#f5f7f9" transform="matrix(1 0 0 -1 155.037 516.763)"/><path d="m0 0h20.6717v20.6717h-20.6717z" fill="#f5f7f9" fill-opacity=".33" transform="matrix(1 0 0 -1 186.045 733.814)"/><path d="m0 0h20.6717v20.6717h-20.6717z" fill="#f5f7f9" fill-opacity=".33" transform="matrix(1 0 0 -1 186.045 485.755)"/><path d="m0 0h20.6717v20.6717h-20.6717z" fill="#f5f7f9" fill-opacity=".66" transform="matrix(1 0 0 -1 186.045 609.785)"/><path d="m0 0h20.6717v20.6717h-20.6717z" fill="#f5f7f9" fill-opacity=".33" transform="matrix(1 0 0 -1 186.045 671.799)"/><path d="m0 0h20.6717v20.6717h-20.6717z" fill="#f5f7f9" fill-opacity=".66" transform="matrix(1 0 0 -1 186.045 547.77)"/><path d="m0 0h20.6717v20.6717h-20.6717z" fill="#f5f7f9" fill-opacity=".33" transform="matrix(1 0 0 -1 186.045 702.808)"/><path d="m0 0h20.6717v20.6717h-20.6717z" fill="#f5f7f9" transform="matrix(1 0 0 -1 186.045 454.747)"/><path d="m0 0h20.6717v20.6717h-20.6717z" fill="#f5f7f9" fill-opacity=".66" transform="matrix(1 0 0 -1 186.045 578.776)"/><path d="m0 0h20.6717v20.6717h-20.6717z" fill="#f5f7f9" fill-opacity=".33" transform="matrix(1 0 0 -1 186.045 640.792)"/><path d="m0 0h20.6717v20.6717h-20.6717z" fill="#f5f7f9" fill-opacity=".33" transform="matrix(1 0 0 -1 558.135 671.799)"/><path d="m0 0h20.6717v20.6717h-20.6717z" fill="#f5f7f9" fill-opacity=".33" transform="matrix(1 0 0 -1 558.135 702.808)"/><path d="m0 0h20.6717v20.6717h-20.6717z" fill="#f5f7f9" fill-opacity=".33" transform="matrix(1 0 0 -1 372.09 733.814)"/><path d="m0 0h20.6717v20.6717h-20.6717z" fill="#f5f7f9" fill-opacity=".33" transform="matrix(1 0 0 -1 372.09 237.694)"/><path d="m0 0h20.6717v20.6717h-20.6717z" fill="#f5f7f9" fill-opacity=".33" transform="matrix(1 0 0 -1 372.09 485.755)"/><path d="m0 0h20.6717v20.6717h-20.6717z" fill="#f5f7f9" fill-opacity=".33" transform="matrix(1 0 0 -1 372.09 671.799)"/><path d="m0 0h20.6717v20.6717h-20.6717z" fill="#f5f7f9" transform="matrix(1 0 0 -1 372.09 175.68)"/><path d="m0 0h20.6717v20.6717h-20.6717z" fill="#f5f7f9" fill-opacity=".33" transform="matrix(1 0 0 -1 372.09 423.74)"/><path d="m0 0h20.6717v20.6717h-20.6717z" fill="#f5f7f9" fill-opacity=".33" transform="matrix(1 0 0 -1 372.09 299.71)"/><path d="m0 0h20.6717v20.6717h-20.6717z" fill="#f5f7f9" transform="matrix(1 0 0 -1 372.09 702.808)"/><path d="m0 0h20.6717v20.6717h-20.6717z" fill="#f5f7f9" fill-opacity=".33" transform="matrix(1 0 0 -1 372.09 206.687)"/><path d="m0 0h20.6717v20.6717h-20.6717z" fill="#f5f7f9" fill-opacity=".33" transform="matrix(1 0 0 -1 372.09 330.718)"/><path d="m0 0h20.6717v20.6717h-20.6717z" fill="#f5f7f9" fill-opacity=".33" transform="matrix(1 0 0 -1 372.09 392.732)"/><path d="m0 0h20.6717v20.6717h-20.6717z" fill="#f5f7f9" fill-opacity=".33" transform="matrix(1 0 0 -1 372.09 516.763)"/><path d="m0 0h20.6717v20.6717h-20.6717z" fill="#f5f7f9" fill-opacity=".33" transform="matrix(1 0 0 -1 372.09 268.701)"/><path d="m0 0h20.6717v20.6717h-20.6717z" fill="#f5f7f9" fill-opacity=".33" transform="matrix(1 0 0 -1 744.18 671.799)"/><path d="m0 0h20.6717v20.6717h-20.6717z" fill="#f5f7f9" fill-opacity=".33" transform="matrix(1 0 0 -1 744.18 702.808)"/><path d="m0 0h20.6717v20.6717h-20.6717z" fill="#f5f7f9" fill-opacity=".33" transform="matrix(1 0 0 -1 279.066 733.814)"/><path d="m0 0h20.6717v20.6717h-20.6717z" fill="#f5f7f9" fill-opacity=".33" transform="matrix(1 0 0 -1 279.066 485.755)"/><path d="m0 0h20.6717v20.6717h-20.6717z" fill="#f5f7f9" fill-opacity=".66" transform="matrix(1 0 0 -1 279.066 609.785)"/><path d="m0 0h20.6717v20.6717h-20.6717z" fill="#f5f7f9" fill-opacity=".33" transform="matrix(1 0 0 -1 279.066 671.799)"/><path d="m0 0h20.6717v20.6717h-20.6717z" fill="#f5f7f9" fill-opacity=".66" transform="matrix(1 0 0 -1 279.066 175.68)"/><path d="m0 0h20.6717v20.6717h-20.6717z" fill="#f5f7f9" fill-opacity=".33" transform="matrix(1 0 0 -1 279.066 423.74)"/><path d="m0 0h20.6717v20.6717h-20.6717z" fill="#f5f7f9" fill-opacity=".33" transform="matrix(1 0 0 -1 279.066 547.77)"/><g filter="url(#b)"><path d="m0 0h20.6717v20.6717h-20.6717z" fill="#f5f7f9" transform="matrix(1 0 0 -1 279.066 702.808)"/></g><g fill="#f5f7f9"><path d="m0 0h20.6717v20.6717h-20.6717z" fill-opacity=".33" transform="matrix(1 0 0 -1 279.066 206.687)"/><path d="m0 0h20.6717v20.6717h-20.6717z" fill-opacity=".33" transform="matrix(1 0 0 -1 279.066 454.747)"/><path d="m0 0h20.6717v20.6717h-20.6717z" fill-opacity=".33" transform="matrix(1 0 0 -1 279.066 578.776)"/><path d="m0 0h20.6717v20.6717h-20.6717z" fill-opacity=".33" transform="matrix(1 0 0 -1 279.066 640.792)"/><path d="m0 0h20.6717v20.6717h-20.6717z" transform="matrix(1 0 0 -1 279.066 144.672)"/><path d="m0 0h20.6717v20.6717h-20.6717z" fill-opacity=".33" transform="matrix(1 0 0 -1 279.066 392.732)"/><path d="m0 0h20.6717v20.6717h-20.6717z" fill-opacity=".33" transform="matrix(1 0 0 -1 279.066 516.763)"/><path d="m0 0h20.6717v20.6717h-20.6717z" fill-opacity=".66" transform="matrix(1 0 0 -1 651.156 733.814)"/><path d="m0 0h20.6717v20.6717h-20.6717z" transform="matrix(1 0 0 -1 651.156 702.808)"/><path d="m0 0h20.6717v20.6717h-20.6717z" fill-opacity=".66" transform="matrix(1 0 0 -1 465.113 733.814)"/><path d="m0 0h20.6717v20.6717h-20.6717z" fill-opacity=".33" transform="matrix(1 0 0 -1 465.113 671.799)"/><path d="m0 0h20.6717v20.6717h-20.6717z" fill-opacity=".33" transform="matrix(1 0 0 -1 465.113 175.68)"/><path d="m0 0h20.6717v20.6717h-20.6717z" fill-opacity=".33" transform="matrix(1 0 0 -1 465.113 702.808)"/><path d="m0 0h20.6717v20.6717h-20.6717z" fill-opacity=".33" transform="matrix(1 0 0 -1 217.051 733.814)"/><path d="m0 0h20.6717v20.6717h-20.6717z" fill-opacity=".33" transform="matrix(1 0 0 -1 217.051 237.694)"/><path d="m0 0h20.6717v20.6717h-20.6717z" fill-opacity=".66" transform="matrix(1 0 0 -1 217.051 485.755)"/><path d="m0 0h20.6717v20.6717h-20.6717z" fill-opacity=".33" transform="matrix(1 0 0 -1 217.051 609.785)"/><path d="m0 0h20.6717v20.6717h-20.6717z" fill-opacity=".33" transform="matrix(1 0 0 -1 217.051 671.799)"/><path d="m0 0h20.6717v20.6717h-20.6717z" fill-opacity=".33" transform="matrix(1 0 0 -1 217.051 175.68)"/><path d="m0 0h20.6717v20.6717h-20.6717z" transform="matrix(1 0 0 -1 217.051 423.74)"/><path d="m0 0h20.6717v20.6717h-20.6717z" fill-opacity=".33" transform="matrix(1 0 0 -1 217.051 547.77)"/><path d="m0 0h20.6717v20.6717h-20.6717z" fill-opacity=".33" transform="matrix(1 0 0 -1 217.051 702.808)"/><path d="m0 0h20.6717v20.6717h-20.6717z" fill-opacity=".33" transform="matrix(1 0 0 -1 217.051 206.687)"/><path d="m0 0h20.6717v20.6717h-20.6717z" fill-opacity=".33" transform="matrix(1 0 0 -1 217.051 578.776)"/><path d="m0 0h20.6717v20.6717h-20.6717z" fill-opacity=".33" transform="matrix(1 0 0 -1 217.051 640.792)"/><path d="m0 0h20.6717v20.6717h-20.6717z" fill-opacity=".33" transform="matrix(1 0 0 -1 217.051 144.672)"/><path d="m0 0h20.6717v20.6717h-20.6717z" fill-opacity=".66" transform="matrix(1 0 0 -1 217.051 516.763)"/><path d="m0 0h20.6717v20.6717h-20.6717z" fill-opacity=".33" transform="matrix(1 0 0 -1 589.141 671.799)"/><path d="m0 0h20.6717v20.6717h-20.6717z" transform="matrix(1 0 0 -1 589.141 702.808)"/><path d="m0 0h20.6717v20.6717h-20.6717z" fill-opacity=".33" transform="matrix(1 0 0 -1 403.098 237.694)"/><path d="m0 0h20.6717v20.6717h-20.6717z" fill-opacity=".33" transform="matrix(1 0 0 -1 403.098 175.68)"/><path d="m0 0h20.6717v20.6717h-20.6717z" fill-opacity=".33" transform="matrix(1 0 0 -1 403.098 299.71)"/><path d="m0 0h20.6717v20.6717h-20.6717z" fill-opacity=".66" transform="matrix(1 0 0 -1 403.098 206.687)"/><path d="m0 0h20.6717v20.6717h-20.6717z" fill-opacity=".33" transform="matrix(1 0 0 -1 403.098 330.718)"/><path d="m0 0h20.6717v20.6717h-20.6717z" fill-opacity=".33" transform="matrix(1 0 0 -1 403.098 268.701)"/><path d="m0 0h20.6717v20.6717h-20.6717z" fill-opacity=".66" transform="matrix(1 0 0 -1 775.188 733.814)"/><path d="m0 0h20.6717v20.6717h-20.6717z" fill-opacity=".33" transform="matrix(1 0 0 -1 775.188 702.808)"/><path d="m0 0h20.6717v20.6717h-20.6717z" transform="matrix(1 0 0 -1 310.074 733.814)"/><path d="m0 0h20.6717v20.6717h-20.6717z" fill-opacity=".33" transform="matrix(1 0 0 -1 310.074 485.755)"/><path d="m0 0h20.6717v20.6717h-20.6717z" fill-opacity=".33" transform="matrix(1 0 0 -1 310.074 609.785)"/><path d="m0 0h20.6717v20.6717h-20.6717z" fill-opacity=".33" transform="matrix(1 0 0 -1 310.074 361.725)"/><path d="m0 0h20.6717v20.6717h-20.6717z" fill-opacity=".33" transform="matrix(1 0 0 -1 310.074 671.799)"/><path d="m0 0h20.6717v20.6717h-20.6717z" fill-opacity=".66" transform="matrix(1 0 0 -1 310.074 175.68)"/><path d="m0 0h20.6717v20.6717h-20.6717z" fill-opacity=".33" transform="matrix(1 0 0 -1 310.074 547.77)"/><path d="m0 0h20.6717v20.6717h-20.6717z" fill-opacity=".33" transform="matrix(1 0 0 -1 310.074 299.71)"/><path d="m0 0h20.6717v20.6717h-20.6717z" transform="matrix(1 0 0 -1 310.074 702.808)"/><path d="m0 0h20.6717v20.6717h-20.6717z" fill-opacity=".33" transform="matrix(1 0 0 -1 310.074 206.687)"/><path d="m0 0h20.6717v20.6717h-20.6717z" fill-opacity=".33" transform="matrix(1 0 0 -1 310.074 454.747)"/><path d="m0 0h20.6717v20.6717h-20.6717z" fill-opacity=".33" transform="matrix(1 0 0 -1 310.074 578.776)"/><path d="m0 0h20.6717v20.6717h-20.6717z" fill-opacity=".33" transform="matrix(1 0 0 -1 310.074 330.718)"/><path d="m0 0h20.6717v20.6717h-20.6717z" fill-opacity=".33" transform="matrix(1 0 0 -1 310.074 640.792)"/><path d="m0 0h20.6717v20.6717h-20.6717z" transform="matrix(1 0 0 -1 310.074 144.672)"/><path d="m0 0h20.6717v20.6717h-20.6717z" fill-opacity=".33" transform="matrix(1 0 0 -1 310.074 392.732)"/><path d="m0 0h20.6717v20.6717h-20.6717z" fill-opacity=".33" transform="matrix(1 0 0 -1 310.074 516.763)"/><path d="m0 0h20.6717v20.6717h-20.6717z" fill-opacity=".33" transform="matrix(1 0 0 -1 310.074 268.701)"/><path d="m0 0h20.6717v20.6717h-20.6717z" fill-opacity=".33" transform="matrix(1 0 0 -1 682.164 671.799)"/><path d="m0 0h20.6717v20.6717h-20.6717z" fill-opacity=".33" transform="matrix(1 0 0 -1 682.164 702.808)"/><path d="m0 0h20.6717v20.6717h-20.6717z" fill-opacity=".66" transform="matrix(1 0 0 -1 496.119 733.814)"/><path d="m0 0h20.6717v20.6717h-20.6717z" fill-opacity=".33" transform="matrix(1 0 0 -1 496.119 671.799)"/><path d="m0 0h20.6717v20.6717h-20.6717z" fill-opacity=".33" transform="matrix(1 0 0 -1 496.119 702.808)"/><path d="m0 0h20.6717v20.6717h-20.6717z" fill-opacity=".33" transform="matrix(1 0 0 -1 248.059 733.814)"/><path d="m0 0h20.6717v20.6717h-20.6717z" fill-opacity=".33" transform="matrix(1 0 0 -1 248.059 237.694)"/><path d="m0 0h20.6717v20.6717h-20.6717z" fill-opacity=".66" transform="matrix(1 0 0 -1 248.059 485.755)"/><path d="m0 0h20.6717v20.6717h-20.6717z" fill-opacity=".33" transform="matrix(1 0 0 -1 248.059 609.785)"/><path d="m0 0h20.6717v20.6717h-20.6717z" fill-opacity=".33" transform="matrix(1 0 0 -1 248.059 361.725)"/><path d="m0 0h20.6717v20.6717h-20.6717z" fill-opacity=".33" transform="matrix(1 0 0 -1 248.059 671.799)"/><path d="m0 0h20.6717v20.6717h-20.6717z" fill-opacity=".66" transform="matrix(1 0 0 -1 248.059 175.68)"/><path d="m0 0h20.6717v20.6717h-20.6717z" fill-opacity=".66" transform="matrix(1 0 0 -1 248.059 423.74)"/><path d="m0 0h20.6717v20.6717h-20.6717z" fill-opacity=".33" transform="matrix(1 0 0 -1 248.059 547.77)"/><path d="m0 0h20.6717v20.6717h-20.6717z" fill-opacity=".33" transform="matrix(1 0 0 -1 248.059 702.808)"/><path d="m0 0h20.6717v20.6717h-20.6717z" fill-opacity=".33" transform="matrix(1 0 0 -1 248.059 206.687)"/><path d="m0 0h20.6717v20.6717h-20.6717z" transform="matrix(1 0 0 -1 248.059 454.747)"/><path d="m0 0h20.6717v20.6717h-20.6717z" fill-opacity=".33" transform="matrix(1 0 0 -1 248.059 578.776)"/><path d="m0 0h20.6717v20.6717h-20.6717z" fill-opacity=".33" transform="matrix(1 0 0 -1 248.059 640.792)"/><path d="m0 0h20.6717v20.6717h-20.6717z" fill-opacity=".33" transform="matrix(1 0 0 -1 248.059 144.672)"/><path d="m0 0h20.6717v20.6717h-20.6717z" fill-opacity=".66" transform="matrix(1 0 0 -1 248.059 392.732)"/><path d="m0 0h20.6717v20.6717h-20.6717z" fill-opacity=".33" transform="matrix(1 0 0 -1 620.148 671.799)"/><path d="m0 0h20.6717v20.6717h-20.6717z" fill-opacity=".66" transform="matrix(1 0 0 -1 620.148 702.808)"/><path d="m0 0h20.6717v20.6717h-20.6717z" fill-opacity=".66" transform="matrix(1 0 0 -1 434.105 733.814)"/><path d="m0 0h20.6717v20.6717h-20.6717z" fill-opacity=".33" transform="matrix(1 0 0 -1 434.105 175.68)"/><path d="m0 0h20.6717v20.6717h-20.6717z" fill-opacity=".33" transform="matrix(1 0 0 -1 434.105 702.808)"/><path d="m0 0h20.6717v20.6717h-20.6717z" fill-opacity=".33" transform="matrix(1 0 0 -1 341.082 733.814)"/><path d="m0 0h20.6717v20.6717h-20.6717z" fill-opacity=".33" transform="matrix(1 0 0 -1 341.082 485.755)"/><path d="m0 0h20.6717v20.6717h-20.6717z" fill-opacity=".33" transform="matrix(1 0 0 -1 341.082 671.799)"/><path d="m0 0h20.6717v20.6717h-20.6717z" transform="matrix(1 0 0 -1 341.082 175.68)"/><path d="m0 0h20.6717v20.6717h-20.6717z" transform="matrix(1 0 0 -1 341.082 423.74)"/><path d="m0 0h20.6717v20.6717h-20.6717z" fill-opacity=".33" transform="matrix(1 0 0 -1 341.082 547.77)"/><path d="m0 0h20.6717v20.6717h-20.6717z" fill-opacity=".33" transform="matrix(1 0 0 -1 341.082 299.71)"/><path d="m0 0h20.6717v20.6717h-20.6717z" fill-opacity=".66" transform="matrix(1 0 0 -1 341.082 702.808)"/><g fill-opacity=".33"><path d="m0 0h20.6717v20.6717h-20.6717z" transform="matrix(1 0 0 -1 341.082 206.687)"/><path d="m0 0h20.6717v20.6717h-20.6717z" transform="matrix(1 0 0 -1 341.082 454.747)"/><path d="m0 0h20.6717v20.6717h-20.6717z" transform="matrix(1 0 0 -1 341.082 578.776)"/><path d="m0 0h20.6717v20.6717h-20.6717z" transform="matrix(1 0 0 -1 341.082 330.718)"/><path d="m0 0h20.6717v20.6717h-20.6717z" transform="matrix(1 0 0 -1 341.082 640.792)"/><path d="m0 0h20.6717v20.6717h-20.6717z" transform="matrix(1 0 0 -1 341.082 516.763)"/><path d="m0 0h20.6717v20.6717h-20.6717z" transform="matrix(1 0 0 -1 341.082 268.701)"/></g><path d="m0 0h20.6717v20.6717h-20.6717z" fill-opacity=".66" transform="matrix(1 0 0 -1 527.127 733.814)"/><path d="m0 0h20.6717v20.6717h-20.6717z" fill-opacity=".66" transform="matrix(1 0 0 -1 527.127 671.799)"/><path d="m0 0h20.6717v20.6717h-20.6717z" fill-opacity=".33" transform="matrix(1 0 0 -1 527.127 702.808)"/></g></g></svg>